<mxfile host="app.diagrams.net" modified="2024-07-08T09:12:09.582Z" agent="Mozilla/5.0 (Windows NT 10.0; Win64; x64) AppleWebKit/537.36 (KHTML, like Gecko) Chrome/126.0.0.0 Safari/537.36" etag="qsrhHAi86zqKGJuTTbxN" version="24.6.4" type="device">
  <diagram id="C5RBs43oDa-KdzZeNtuy" name="Page-1">
    <mxGraphModel dx="2074" dy="1144" grid="1" gridSize="10" guides="1" tooltips="1" connect="1" arrows="1" fold="1" page="1" pageScale="1" pageWidth="827" pageHeight="1169" math="0" shadow="0">
      <root>
        <mxCell id="WIyWlLk6GJQsqaUBKTNV-0" />
        <mxCell id="WIyWlLk6GJQsqaUBKTNV-1" parent="WIyWlLk6GJQsqaUBKTNV-0" />
        <mxCell id="bQ3pLLVK7ml2nCBSoJDA-4" value="Phase" style="whiteSpace=wrap;strokeWidth=2;verticalAlign=top;fillColor=none;fontFamily=Verdana;rounded=0;fontStyle=1" vertex="1" parent="WIyWlLk6GJQsqaUBKTNV-1">
          <mxGeometry x="480" y="1320" width="240" height="400" as="geometry" />
        </mxCell>
        <mxCell id="bQ3pLLVK7ml2nCBSoJDA-14" value="Daily Scrum" style="whiteSpace=wrap;strokeWidth=2;verticalAlign=top;fillColor=none;fontFamily=Verdana;rounded=0;fontStyle=1" vertex="1" parent="WIyWlLk6GJQsqaUBKTNV-1">
          <mxGeometry x="160" y="720" width="240" height="320" as="geometry" />
        </mxCell>
        <mxCell id="bQ3pLLVK7ml2nCBSoJDA-8" value="Â  Sprint" style="strokeWidth=2;verticalAlign=top;fillColor=none;strokeColor=default;rounded=0;glass=0;fontFamily=Verdana;whiteSpace=wrap;textShadow=0;align=left;fontStyle=1" vertex="1" parent="WIyWlLk6GJQsqaUBKTNV-1">
          <mxGeometry x="160" y="1080" width="240" height="640" as="geometry" />
        </mxCell>
        <mxCell id="bQ3pLLVK7ml2nCBSoJDA-0" value="External Communication" style="whiteSpace=wrap;strokeWidth=2;verticalAlign=top;fillColor=none;fontFamily=Verdana;shadow=0;rounded=0;glass=0;fontStyle=1" vertex="1" parent="WIyWlLk6GJQsqaUBKTNV-1">
          <mxGeometry x="480" y="720" width="240" height="400" as="geometry" />
        </mxCell>
        <mxCell id="bQ3pLLVK7ml2nCBSoJDA-1" value="External &#xa;Communication &#xa;Needed?" style="rhombus;strokeWidth=2;whiteSpace=wrap;fillColor=#f5f5f5;strokeColor=#666666;fontColor=#333333;fontFamily=Verdana;" vertex="1" parent="WIyWlLk6GJQsqaUBKTNV-1">
          <mxGeometry x="520" y="920" width="160" height="160" as="geometry" />
        </mxCell>
        <mxCell id="bQ3pLLVK7ml2nCBSoJDA-2" value="Prepare &#xa;External Communication" style="whiteSpace=wrap;strokeWidth=2;fillColor=#dae8fc;strokeColor=#6c8ebf;rounded=1;fontFamily=Verdana;" vertex="1" parent="WIyWlLk6GJQsqaUBKTNV-1">
          <mxGeometry x="520" y="840" width="160" height="40" as="geometry" />
        </mxCell>
        <mxCell id="bQ3pLLVK7ml2nCBSoJDA-3" value="Send &#xa;External Communication" style="whiteSpace=wrap;strokeWidth=2;fillColor=#dae8fc;strokeColor=#6c8ebf;rounded=1;fontFamily=Verdana;" vertex="1" parent="WIyWlLk6GJQsqaUBKTNV-1">
          <mxGeometry x="520" y="760" width="160" height="40" as="geometry" />
        </mxCell>
        <mxCell id="bQ3pLLVK7ml2nCBSoJDA-5" value="End of Phase?" style="rhombus;strokeWidth=2;whiteSpace=wrap;fillColor=#f5f5f5;strokeColor=#666666;fontColor=#333333;fontFamily=Verdana;" vertex="1" parent="WIyWlLk6GJQsqaUBKTNV-1">
          <mxGeometry x="520" y="1520" width="160" height="160" as="geometry" />
        </mxCell>
        <mxCell id="bQ3pLLVK7ml2nCBSoJDA-6" value="Create&#xa;Phase Completion Report" style="whiteSpace=wrap;strokeWidth=2;fillColor=#dae8fc;strokeColor=#6c8ebf;rounded=1;fontFamily=Verdana;" vertex="1" parent="WIyWlLk6GJQsqaUBKTNV-1">
          <mxGeometry x="520" y="1440" width="160" height="40" as="geometry" />
        </mxCell>
        <mxCell id="bQ3pLLVK7ml2nCBSoJDA-7" value="Update &#xa;Stakeholder Registry" style="whiteSpace=wrap;strokeWidth=2;fillColor=#dae8fc;strokeColor=#6c8ebf;rounded=1;fontFamily=Verdana;" vertex="1" parent="WIyWlLk6GJQsqaUBKTNV-1">
          <mxGeometry x="520" y="1360" width="160" height="40" as="geometry" />
        </mxCell>
        <mxCell id="bQ3pLLVK7ml2nCBSoJDA-9" value="End of Sprint?" style="rhombus;strokeWidth=2;whiteSpace=wrap;fillColor=#f5f5f5;strokeColor=#666666;fontColor=#333333;fontFamily=Verdana;" vertex="1" parent="WIyWlLk6GJQsqaUBKTNV-1">
          <mxGeometry x="200" y="1120" width="160" height="160" as="geometry" />
        </mxCell>
        <mxCell id="bQ3pLLVK7ml2nCBSoJDA-11" value="Update&#xa;Project Documentation" style="whiteSpace=wrap;strokeWidth=2;fillColor=#dae8fc;strokeColor=#6c8ebf;rounded=1;fontFamily=Verdana;" vertex="1" parent="WIyWlLk6GJQsqaUBKTNV-1">
          <mxGeometry x="200" y="1440" width="160" height="40" as="geometry" />
        </mxCell>
        <mxCell id="bQ3pLLVK7ml2nCBSoJDA-13" value="Plan Next Sprint" style="whiteSpace=wrap;strokeWidth=2;fillColor=#dae8fc;strokeColor=#6c8ebf;rounded=1;fontFamily=Verdana;" vertex="1" parent="WIyWlLk6GJQsqaUBKTNV-1">
          <mxGeometry x="200" y="1640" width="160" height="40" as="geometry" />
        </mxCell>
        <mxCell id="bQ3pLLVK7ml2nCBSoJDA-16" value="Start of Day" style="whiteSpace=wrap;strokeWidth=2;fillColor=#ffcccc;strokeColor=#36393d;rounded=1;fontFamily=Verdana;fontStyle=1" vertex="1" parent="WIyWlLk6GJQsqaUBKTNV-1">
          <mxGeometry x="440" y="1240" width="120" height="40" as="geometry" />
        </mxCell>
        <mxCell id="bQ3pLLVK7ml2nCBSoJDA-17" value="Update &#xa;Project Management Tool" style="whiteSpace=wrap;strokeWidth=2;fillColor=#dae8fc;strokeColor=#6c8ebf;rounded=1;fontFamily=Verdana;" vertex="1" parent="WIyWlLk6GJQsqaUBKTNV-1">
          <mxGeometry x="200" y="960" width="160" height="40" as="geometry" />
        </mxCell>
        <mxCell id="bQ3pLLVK7ml2nCBSoJDA-18" value="Document&#xa;Personal Project Journal" style="whiteSpace=wrap;strokeWidth=2;fillColor=#dae8fc;strokeColor=#6c8ebf;rounded=1;fontFamily=Verdana;" vertex="1" parent="WIyWlLk6GJQsqaUBKTNV-1">
          <mxGeometry x="200" y="880" width="160" height="40" as="geometry" />
        </mxCell>
        <mxCell id="bQ3pLLVK7ml2nCBSoJDA-19" value="Start Next Phase" style="whiteSpace=wrap;strokeWidth=2;fillColor=#dae8fc;strokeColor=#6c8ebf;rounded=1;fontFamily=Verdana;" vertex="1" parent="WIyWlLk6GJQsqaUBKTNV-1">
          <mxGeometry x="540" y="1160" width="120" height="40" as="geometry" />
        </mxCell>
        <mxCell id="bQ3pLLVK7ml2nCBSoJDA-25" value="No" style="startArrow=none;endArrow=block;exitX=1;exitY=0.5;entryX=0;entryY=0.5;rounded=0;fillColor=#dae8fc;strokeColor=#6c8ebf;exitDx=0;exitDy=0;entryDx=0;entryDy=0;fontFamily=Verdana;edgeStyle=orthogonalEdgeStyle;" edge="1" parent="WIyWlLk6GJQsqaUBKTNV-1" source="bQ3pLLVK7ml2nCBSoJDA-9" target="bQ3pLLVK7ml2nCBSoJDA-16">
          <mxGeometry x="-0.7143" relative="1" as="geometry">
            <Array as="points">
              <mxPoint x="380" y="1200" />
              <mxPoint x="380" y="1260" />
            </Array>
            <mxPoint as="offset" />
          </mxGeometry>
        </mxCell>
        <mxCell id="bQ3pLLVK7ml2nCBSoJDA-26" value="Yes" style="startArrow=none;endArrow=block;exitX=0.5;exitY=1;entryX=0.5;entryY=0;rounded=0;fillColor=#dae8fc;strokeColor=#6c8ebf;entryDx=0;entryDy=0;fontFamily=Verdana;" edge="1" parent="WIyWlLk6GJQsqaUBKTNV-1" source="bQ3pLLVK7ml2nCBSoJDA-9" target="bQ3pLLVK7ml2nCBSoJDA-52">
          <mxGeometry relative="1" as="geometry">
            <mxPoint x="280" y="1360" as="targetPoint" />
            <mxPoint as="offset" />
          </mxGeometry>
        </mxCell>
        <mxCell id="bQ3pLLVK7ml2nCBSoJDA-27" value="" style="curved=1;startArrow=none;endArrow=block;exitX=0.5;exitY=1;entryX=0.5;entryY=0;rounded=0;fillColor=#dae8fc;strokeColor=#6c8ebf;exitDx=0;exitDy=0;fontFamily=Verdana;" edge="1" parent="WIyWlLk6GJQsqaUBKTNV-1" source="bQ3pLLVK7ml2nCBSoJDA-52" target="bQ3pLLVK7ml2nCBSoJDA-11">
          <mxGeometry relative="1" as="geometry">
            <Array as="points" />
            <mxPoint x="280" y="1400" as="sourcePoint" />
          </mxGeometry>
        </mxCell>
        <mxCell id="bQ3pLLVK7ml2nCBSoJDA-28" value="" style="curved=1;startArrow=none;endArrow=block;exitX=0.5;exitY=1;entryX=0.5;entryY=0;rounded=0;fillColor=#dae8fc;strokeColor=#6c8ebf;entryDx=0;entryDy=0;exitDx=0;exitDy=0;fontFamily=Verdana;" edge="1" parent="WIyWlLk6GJQsqaUBKTNV-1" source="bQ3pLLVK7ml2nCBSoJDA-11" target="bQ3pLLVK7ml2nCBSoJDA-56">
          <mxGeometry relative="1" as="geometry">
            <Array as="points" />
          </mxGeometry>
        </mxCell>
        <mxCell id="bQ3pLLVK7ml2nCBSoJDA-30" value="" style="startArrow=none;endArrow=block;exitX=0.5;exitY=1;entryX=0.5;entryY=1;rounded=0;fillColor=#dae8fc;strokeColor=#6c8ebf;exitDx=0;exitDy=0;entryDx=0;entryDy=0;fontFamily=Verdana;edgeStyle=orthogonalEdgeStyle;" edge="1" parent="WIyWlLk6GJQsqaUBKTNV-1" source="bQ3pLLVK7ml2nCBSoJDA-13" target="bQ3pLLVK7ml2nCBSoJDA-5">
          <mxGeometry relative="1" as="geometry">
            <Array as="points">
              <mxPoint x="280" y="1700" />
              <mxPoint x="600" y="1700" />
            </Array>
          </mxGeometry>
        </mxCell>
        <mxCell id="bQ3pLLVK7ml2nCBSoJDA-31" value="No" style="startArrow=none;endArrow=block;exitX=0;exitY=0.5;rounded=0;fillColor=#dae8fc;strokeColor=#6c8ebf;exitDx=0;exitDy=0;entryX=0.5;entryY=1;entryDx=0;entryDy=0;fontFamily=Verdana;edgeStyle=orthogonalEdgeStyle;" edge="1" parent="WIyWlLk6GJQsqaUBKTNV-1" source="bQ3pLLVK7ml2nCBSoJDA-5" target="bQ3pLLVK7ml2nCBSoJDA-16">
          <mxGeometry x="-0.9296" relative="1" as="geometry">
            <Array as="points">
              <mxPoint x="440" y="1600" />
              <mxPoint x="440" y="1300" />
              <mxPoint x="500" y="1300" />
            </Array>
            <mxPoint x="680" y="1060" as="targetPoint" />
            <mxPoint as="offset" />
          </mxGeometry>
        </mxCell>
        <mxCell id="bQ3pLLVK7ml2nCBSoJDA-32" value="Yes" style="startArrow=none;endArrow=block;exitX=0.5;exitY=0;rounded=0;fillColor=#dae8fc;strokeColor=#6c8ebf;exitDx=0;exitDy=0;entryX=0.5;entryY=1;entryDx=0;entryDy=0;edgeStyle=orthogonalEdgeStyle;fontFamily=Verdana;" edge="1" parent="WIyWlLk6GJQsqaUBKTNV-1" source="bQ3pLLVK7ml2nCBSoJDA-5" target="bQ3pLLVK7ml2nCBSoJDA-6">
          <mxGeometry relative="1" as="geometry">
            <mxPoint x="910" y="1170" as="targetPoint" />
            <mxPoint as="offset" />
          </mxGeometry>
        </mxCell>
        <mxCell id="bQ3pLLVK7ml2nCBSoJDA-33" value="" style="startArrow=none;endArrow=block;exitX=0.5;exitY=0;entryX=0.5;entryY=1;rounded=0;fillColor=#dae8fc;strokeColor=#6c8ebf;exitDx=0;exitDy=0;entryDx=0;entryDy=0;fontFamily=Verdana;" edge="1" parent="WIyWlLk6GJQsqaUBKTNV-1" source="bQ3pLLVK7ml2nCBSoJDA-6" target="bQ3pLLVK7ml2nCBSoJDA-7">
          <mxGeometry relative="1" as="geometry" />
        </mxCell>
        <mxCell id="bQ3pLLVK7ml2nCBSoJDA-34" value="" style="startArrow=none;endArrow=block;exitX=1;exitY=0.5;entryX=1;entryY=0.5;rounded=0;fillColor=#dae8fc;strokeColor=#6c8ebf;exitDx=0;exitDy=0;edgeStyle=orthogonalEdgeStyle;entryDx=0;entryDy=0;fontFamily=Verdana;" edge="1" parent="WIyWlLk6GJQsqaUBKTNV-1" source="bQ3pLLVK7ml2nCBSoJDA-7" target="bQ3pLLVK7ml2nCBSoJDA-1">
          <mxGeometry relative="1" as="geometry">
            <Array as="points">
              <mxPoint x="700" y="1380" />
              <mxPoint x="700" y="1000" />
            </Array>
          </mxGeometry>
        </mxCell>
        <mxCell id="bQ3pLLVK7ml2nCBSoJDA-35" value="No" style="startArrow=none;endArrow=block;exitX=0.5;exitY=1;entryX=0.5;entryY=0;rounded=0;fillColor=#dae8fc;strokeColor=#6c8ebf;exitDx=0;exitDy=0;entryDx=0;entryDy=0;fontFamily=Verdana;" edge="1" parent="WIyWlLk6GJQsqaUBKTNV-1" source="bQ3pLLVK7ml2nCBSoJDA-1" target="bQ3pLLVK7ml2nCBSoJDA-19">
          <mxGeometry x="-0.5" relative="1" as="geometry">
            <mxPoint as="offset" />
          </mxGeometry>
        </mxCell>
        <mxCell id="bQ3pLLVK7ml2nCBSoJDA-36" value="Yes" style="startArrow=none;endArrow=block;exitX=0.5;exitY=0;entryX=0.5;entryY=1;rounded=0;fillColor=#dae8fc;strokeColor=#6c8ebf;exitDx=0;exitDy=0;entryDx=0;entryDy=0;fontFamily=Verdana;" edge="1" parent="WIyWlLk6GJQsqaUBKTNV-1" source="bQ3pLLVK7ml2nCBSoJDA-1" target="bQ3pLLVK7ml2nCBSoJDA-2">
          <mxGeometry relative="1" as="geometry">
            <mxPoint as="offset" />
          </mxGeometry>
        </mxCell>
        <mxCell id="bQ3pLLVK7ml2nCBSoJDA-38" value="" style="startArrow=none;endArrow=block;exitX=0;exitY=0.5;entryX=0;entryY=0.5;rounded=0;fillColor=#dae8fc;strokeColor=#6c8ebf;entryDx=0;entryDy=0;exitDx=0;exitDy=0;edgeStyle=orthogonalEdgeStyle;fontFamily=Verdana;" edge="1" parent="WIyWlLk6GJQsqaUBKTNV-1" source="bQ3pLLVK7ml2nCBSoJDA-3" target="bQ3pLLVK7ml2nCBSoJDA-19">
          <mxGeometry relative="1" as="geometry">
            <Array as="points">
              <mxPoint x="500" y="780" />
              <mxPoint x="500" y="1180" />
            </Array>
            <mxPoint x="540" y="780" as="sourcePoint" />
            <mxPoint x="560" y="1180" as="targetPoint" />
          </mxGeometry>
        </mxCell>
        <mxCell id="bQ3pLLVK7ml2nCBSoJDA-39" value="" style="startArrow=none;endArrow=block;exitX=0.5;exitY=1;rounded=0;fillColor=#dae8fc;strokeColor=#6c8ebf;exitDx=0;exitDy=0;entryX=1;entryY=0.5;entryDx=0;entryDy=0;edgeStyle=orthogonalEdgeStyle;fontFamily=Verdana;" edge="1" parent="WIyWlLk6GJQsqaUBKTNV-1" source="bQ3pLLVK7ml2nCBSoJDA-19" target="bQ3pLLVK7ml2nCBSoJDA-16">
          <mxGeometry relative="1" as="geometry">
            <mxPoint x="480" y="900" as="targetPoint" />
          </mxGeometry>
        </mxCell>
        <mxCell id="bQ3pLLVK7ml2nCBSoJDA-51" value="Daily Scrum" style="ellipse;whiteSpace=wrap;html=1;strokeColor=#6c8ebf;fillColor=#dae8fc;strokeWidth=2;fontFamily=Verdana;" vertex="1" parent="WIyWlLk6GJQsqaUBKTNV-1">
          <mxGeometry x="200" y="760" width="160" height="80" as="geometry" />
        </mxCell>
        <mxCell id="bQ3pLLVK7ml2nCBSoJDA-52" value="Sprint Review" style="ellipse;whiteSpace=wrap;html=1;strokeColor=#6c8ebf;fillColor=#dae8fc;strokeWidth=2;fontFamily=Verdana;" vertex="1" parent="WIyWlLk6GJQsqaUBKTNV-1">
          <mxGeometry x="200" y="1320" width="160" height="80" as="geometry" />
        </mxCell>
        <mxCell id="bQ3pLLVK7ml2nCBSoJDA-53" value="" style="edgeStyle=none;orthogonalLoop=1;jettySize=auto;html=1;rounded=0;strokeColor=#6c8ebf;fontColor=default;entryX=0.5;entryY=0;entryDx=0;entryDy=0;exitX=0.5;exitY=1;exitDx=0;exitDy=0;align=center;verticalAlign=middle;fontFamily=Verdana;fontSize=11;labelBackgroundColor=default;startArrow=none;endArrow=block;fillColor=#dae8fc;" edge="1" parent="WIyWlLk6GJQsqaUBKTNV-1" source="bQ3pLLVK7ml2nCBSoJDA-51" target="bQ3pLLVK7ml2nCBSoJDA-18">
          <mxGeometry width="80" relative="1" as="geometry">
            <mxPoint x="400" y="810" as="sourcePoint" />
            <mxPoint x="480" y="810" as="targetPoint" />
            <Array as="points" />
          </mxGeometry>
        </mxCell>
        <mxCell id="bQ3pLLVK7ml2nCBSoJDA-54" value="" style="edgeStyle=none;orthogonalLoop=1;jettySize=auto;html=1;rounded=0;strokeColor=#6c8ebf;fontColor=default;entryX=0.5;entryY=0;entryDx=0;entryDy=0;exitX=0.5;exitY=1;exitDx=0;exitDy=0;align=center;verticalAlign=middle;fontFamily=Verdana;fontSize=11;labelBackgroundColor=default;startArrow=none;endArrow=block;fillColor=#dae8fc;" edge="1" parent="WIyWlLk6GJQsqaUBKTNV-1" source="bQ3pLLVK7ml2nCBSoJDA-18" target="bQ3pLLVK7ml2nCBSoJDA-17">
          <mxGeometry width="80" relative="1" as="geometry">
            <mxPoint x="410" y="910" as="sourcePoint" />
            <mxPoint x="490" y="910" as="targetPoint" />
            <Array as="points" />
          </mxGeometry>
        </mxCell>
        <mxCell id="bQ3pLLVK7ml2nCBSoJDA-55" value="" style="edgeStyle=none;orthogonalLoop=1;jettySize=auto;html=1;rounded=0;strokeColor=#6c8ebf;fontColor=default;entryX=0.5;entryY=0;entryDx=0;entryDy=0;exitX=0.5;exitY=1;exitDx=0;exitDy=0;align=center;verticalAlign=middle;fontFamily=Verdana;fontSize=11;labelBackgroundColor=default;startArrow=none;endArrow=block;fillColor=#dae8fc;" edge="1" parent="WIyWlLk6GJQsqaUBKTNV-1" source="bQ3pLLVK7ml2nCBSoJDA-17" target="bQ3pLLVK7ml2nCBSoJDA-9">
          <mxGeometry width="80" relative="1" as="geometry">
            <mxPoint x="110" y="990" as="sourcePoint" />
            <mxPoint x="190" y="990" as="targetPoint" />
            <Array as="points" />
          </mxGeometry>
        </mxCell>
        <mxCell id="bQ3pLLVK7ml2nCBSoJDA-56" value="Sprint Retrospective" style="ellipse;whiteSpace=wrap;html=1;strokeColor=#6c8ebf;fillColor=#dae8fc;strokeWidth=2;fontFamily=Verdana;" vertex="1" parent="WIyWlLk6GJQsqaUBKTNV-1">
          <mxGeometry x="200" y="1520" width="160" height="80" as="geometry" />
        </mxCell>
        <mxCell id="bQ3pLLVK7ml2nCBSoJDA-57" value="" style="orthogonalLoop=1;jettySize=auto;html=1;rounded=0;strokeColor=#6c8ebf;fontColor=default;exitX=0.5;exitY=1;exitDx=0;exitDy=0;align=center;verticalAlign=middle;fontFamily=Verdana;fontSize=11;labelBackgroundColor=default;startArrow=none;endArrow=block;fillColor=#dae8fc;entryX=0.5;entryY=0;entryDx=0;entryDy=0;" edge="1" parent="WIyWlLk6GJQsqaUBKTNV-1" source="bQ3pLLVK7ml2nCBSoJDA-56" target="bQ3pLLVK7ml2nCBSoJDA-13">
          <mxGeometry width="80" relative="1" as="geometry">
            <mxPoint x="640" y="1410" as="sourcePoint" />
            <mxPoint x="480" y="1540" as="targetPoint" />
          </mxGeometry>
        </mxCell>
        <mxCell id="bQ3pLLVK7ml2nCBSoJDA-59" value="" style="edgeStyle=none;orthogonalLoop=1;jettySize=auto;html=1;rounded=0;strokeColor=#6c8ebf;fontColor=default;exitX=0.5;exitY=0;exitDx=0;exitDy=0;entryX=0.5;entryY=1;entryDx=0;entryDy=0;align=center;verticalAlign=middle;fontFamily=Verdana;fontSize=11;labelBackgroundColor=default;startArrow=none;endArrow=block;fillColor=#dae8fc;" edge="1" parent="WIyWlLk6GJQsqaUBKTNV-1" source="bQ3pLLVK7ml2nCBSoJDA-2" target="bQ3pLLVK7ml2nCBSoJDA-3">
          <mxGeometry width="80" relative="1" as="geometry">
            <mxPoint x="780" y="820" as="sourcePoint" />
            <mxPoint x="860" y="820" as="targetPoint" />
            <Array as="points" />
          </mxGeometry>
        </mxCell>
        <mxCell id="bQ3pLLVK7ml2nCBSoJDA-60" value="" style="edgeStyle=orthogonalEdgeStyle;orthogonalLoop=1;jettySize=auto;html=1;rounded=0;strokeColor=#6c8ebf;fontColor=default;exitX=0.5;exitY=0;exitDx=0;exitDy=0;entryX=1;entryY=0.5;entryDx=0;entryDy=0;align=center;verticalAlign=middle;fontFamily=Helvetica;fontSize=11;labelBackgroundColor=default;startArrow=none;endArrow=block;fillColor=#dae8fc;" edge="1" parent="WIyWlLk6GJQsqaUBKTNV-1" source="bQ3pLLVK7ml2nCBSoJDA-16" target="bQ3pLLVK7ml2nCBSoJDA-51">
          <mxGeometry width="80" relative="1" as="geometry">
            <mxPoint x="460" y="960" as="sourcePoint" />
            <mxPoint x="540" y="960" as="targetPoint" />
            <Array as="points">
              <mxPoint x="500" y="1220" />
              <mxPoint x="440" y="1220" />
              <mxPoint x="440" y="800" />
            </Array>
          </mxGeometry>
        </mxCell>
      </root>
    </mxGraphModel>
  </diagram>
</mxfile>
